<?xml version="1.0" encoding="utf-8"?>
<!-- Generator: Adobe Illustrator 16.1.0, SVG Export Plug-In . SVG Version: 6.00 Build 0)  -->
<!DOCTYPE svg PUBLIC "-//W3C//DTD SVG 1.1//EN" "http://www.w3.org/Graphics/SVG/1.1/DTD/svg11.dtd">
<svg version="1.1" id="Layer_1" xmlns="http://www.w3.org/2000/svg" xmlns:xlink="http://www.w3.org/1999/xlink" x="0px" y="0px"
	 width="90px" height="75px" viewBox="0 0 90 75" enable-background="new 0 0 90 75" xml:space="preserve">
<path fill="#64B9E4" d="M83.848,13.403c-2.857,1.268-5.93,2.125-9.154,2.51c3.291-1.973,5.818-5.097,7.008-8.818
	c-3.08,1.826-6.49,3.153-10.121,3.868c-2.908-3.099-7.051-5.034-11.637-5.034c-8.803,0-15.94,7.137-15.94,15.94
	c0,1.249,0.141,2.466,0.413,3.633c-13.248-0.665-24.994-7.011-32.855-16.655c-1.372,2.354-2.159,5.093-2.159,8.014
	c0,5.53,2.814,10.409,7.092,13.269c-2.613-0.083-5.071-0.801-7.22-1.994c-0.002,0.066-0.002,0.133-0.002,0.2
	c0,7.724,5.495,14.166,12.787,15.631c-1.338,0.364-2.746,0.559-4.199,0.559c-1.027,0-2.026-0.1-2.999-0.286
	c2.028,6.333,7.915,10.942,14.891,11.07c-5.456,4.275-12.329,6.824-19.798,6.824c-1.286,0-2.555-0.076-3.802-0.224
	c7.054,4.523,15.433,7.162,24.435,7.162c29.32,0,45.355-24.289,45.355-45.354c0-0.691-0.016-1.379-0.047-2.062
	C79.01,19.407,81.711,16.601,83.848,13.403z"/>
</svg>
