<?xml version="1.0" encoding="utf-8"?>
<!-- Generator: Adobe Illustrator 16.1.0, SVG Export Plug-In . SVG Version: 6.00 Build 0)  -->
<!DOCTYPE svg PUBLIC "-//W3C//DTD SVG 1.1//EN" "http://www.w3.org/Graphics/SVG/1.1/DTD/svg11.dtd">
<svg version="1.1" id="Layer_1" xmlns="http://www.w3.org/2000/svg" xmlns:xlink="http://www.w3.org/1999/xlink" x="0px" y="0px"
	 width="110px" height="90px" viewBox="0 0 110 90" enable-background="new 0 0 110 90" xml:space="preserve">
<g>
	<g>
		<path class="ico" d="M27.566,10.381c-5.312,0-8.785,3.488-8.785,8.072c0,4.483,3.369,8.074,8.58,8.074h0.102c5.414,0,8.785-3.589,8.785-8.074
			C36.147,13.87,32.877,10.381,27.566,10.381z M19.699,79.619h15.527V32.902H19.699V79.619z M73.342,31.806
			c-8.244,0-11.932,4.531-13.993,7.714v0.158h-0.105c0.033-0.051,0.07-0.106,0.105-0.158v-6.618H43.819
			c0.203,4.384,0,46.717,0,46.717h15.529V53.531c0-1.396,0.1-2.793,0.511-3.789c1.12-2.791,3.676-5.681,7.965-5.681
			c5.623,0,7.869,4.287,7.869,10.564v24.993h15.525V52.832C91.219,38.484,83.559,31.806,73.342,31.806z"/>
	</g>
</g>
</svg>
