<?xml version="1.0" encoding="utf-8"?>
<!-- Generator: Adobe Illustrator 16.1.0, SVG Export Plug-In . SVG Version: 6.00 Build 0)  -->
<!DOCTYPE svg PUBLIC "-//W3C//DTD SVG 1.1//EN" "http://www.w3.org/Graphics/SVG/1.1/DTD/svg11.dtd">
<svg version="1.1" id="Layer_1" xmlns="http://www.w3.org/2000/svg" xmlns:xlink="http://www.w3.org/1999/xlink" x="0px" y="0px"
	 width="110px" height="90px" viewBox="0 0 110 90" enable-background="new 0 0 110 90" xml:space="preserve">
<path class="ico" d="M99.287,17.529c-3.258,1.445-6.76,2.422-10.436,2.863c3.752-2.25,6.631-5.812,7.988-10.053
	c-3.512,2.082-7.398,3.594-11.539,4.41c-3.312-3.533-8.037-5.739-13.266-5.739c-10.033,0-18.17,8.136-18.17,18.171
	c0,1.424,0.16,2.811,0.47,4.141c-15.102-0.758-28.493-7.992-37.455-18.986c-1.563,2.684-2.461,5.805-2.461,9.135
	c0,6.306,3.208,11.867,8.085,15.127c-2.979-0.095-5.782-0.914-8.231-2.273c-0.003,0.075-0.003,0.152-0.003,0.228
	c0,8.806,6.266,16.15,14.578,17.819c-1.525,0.417-3.13,0.636-4.787,0.636c-1.17,0-2.31-0.113-3.419-0.324
	c2.312,7.22,9.023,12.473,16.976,12.619c-6.22,4.874-14.055,7.779-22.57,7.779c-1.466,0-2.912-0.088-4.334-0.256
	c8.042,5.156,17.594,8.166,27.856,8.166c33.427,0,51.706-27.691,51.706-51.705c0-0.788-0.02-1.571-0.053-2.351
	C93.771,24.374,96.85,21.174,99.287,17.529z"/>
</svg>
