<?xml version="1.0" encoding="utf-8"?>
<!-- Generator: Adobe Illustrator 16.1.0, SVG Export Plug-In . SVG Version: 6.00 Build 0)  -->
<!DOCTYPE svg PUBLIC "-//W3C//DTD SVG 1.1//EN" "http://www.w3.org/Graphics/SVG/1.1/DTD/svg11.dtd">
<svg version="1.1" id="Layer_1" xmlns="http://www.w3.org/2000/svg" xmlns:xlink="http://www.w3.org/1999/xlink" x="0px" y="0px"
	 width="90px" height="75px" viewBox="0 0 90 75" enable-background="new 0 0 90 75" xml:space="preserve">
<g>
	<g>
		<path fill-rule="evenodd" clip-rule="evenodd" fill="#64B9E4" d="M19.646,5.994c-4.919,0-8.134,3.23-8.134,7.474
			c0,4.151,3.12,7.476,7.945,7.476h0.094c5.013,0,8.134-3.324,8.134-7.476C27.592,9.225,24.564,5.994,19.646,5.994z M12.363,70.104
			h14.376V26.847H12.363V70.104z M62.03,25.832c-7.632,0-11.047,4.195-12.957,7.143v0.146h-0.096
			c0.03-0.047,0.064-0.098,0.096-0.146v-6.128H34.695c0.188,4.059,0,43.257,0,43.257h14.378V45.947c0-1.293,0.094-2.585,0.474-3.508
			c1.038-2.584,3.404-5.26,7.376-5.26c5.204,0,7.284,3.969,7.284,9.782v23.142h14.376V45.301
			C78.583,32.015,71.49,25.832,62.03,25.832z"/>
	</g>
</g>
</svg>
