<?xml version="1.0" encoding="utf-8"?>
<!-- Generator: Adobe Illustrator 16.1.0, SVG Export Plug-In . SVG Version: 6.00 Build 0)  -->
<!DOCTYPE svg PUBLIC "-//W3C//DTD SVG 1.1//EN" "http://www.w3.org/Graphics/SVG/1.1/DTD/svg11.dtd">
<svg version="1.1" id="Isolation_Mode" xmlns="http://www.w3.org/2000/svg" xmlns:xlink="http://www.w3.org/1999/xlink" x="0px"
	 y="0px" width="171px" height="61px" viewBox="0 0 171 61" enable-background="new 0 0 171 61" xml:space="preserve">
<path d="M106.709,0.299l3.206,13.149h8.544v35.058l2.994,12.281h12.844V13.448h11.918V0h-39.506V0.299z M102.977,50.146H90.379
	L88.76,60.788h15.836L102.977,50.146z M149.657,60.788h3.055v-3.056h-3.055V60.788z M160.776,53.953h7.192v1.574
	c0,2.378-1.636,2.378-3.624,2.378c-2.111,0-3.568-0.031-3.568-2.496V53.953z M149.665,53.953h8.259v1.545
	c0,2.23,0.833,3.566,2.2,4.399c1.158,0.709,2.407,0.86,4.249,0.86c2.525,0,3.862-0.328,4.962-1.366
	c1.101-1.039,1.486-2.26,1.486-3.923v-4.548h-21.156V53.953z M165.829,32.573h-11.172c-1.454,0-2.141-0.952-2.141-2.049
	c0-1.104,0.687-2.052,2.141-2.052h11.172c1.455,0,2.14,0.948,2.14,2.052C167.968,31.621,167.284,32.573,165.829,32.573
	 M165.829,25.438h-11.172c-3.447,0-5.172,2.615-5.172,5.085c0,2.463,1.725,5.077,5.172,5.077h11.172
	c3.447,0,5.172-2.613,5.172-5.077C171,28.053,169.276,25.438,165.829,25.438 M65.05,22.307h-9.709V0H0v13.448h11.75v47.339h15.837
	V13.448h11.919v47.339h15.836V35.762h9.709v25.026h7.106l8.73-36.446V0H65.05V22.307z M149.485,43.176c0,2.703,2.169,4.9,4.934,4.9
	h16.402v-3.032h-16.107c-1.484,0-2.197-0.802-2.197-1.868c0-1.071,0.713-1.876,2.197-1.876h16.107v-3.028h-16.402
	C151.654,38.272,149.485,40.469,149.485,43.176 M154.657,10.296h6.656V4.861h-2.674v2.408h-3.982c-1.454,0-2.141-0.953-2.141-2.051
	c0-1.1,0.687-2.051,2.141-2.051h11.172c1.455,0,2.14,0.951,2.14,2.051c0,1.098-0.685,2.051-2.14,2.051h-1.07v3.028h1.07
	c3.447,0,5.172-2.614,5.172-5.079c0-2.468-1.725-5.081-5.172-5.081h-11.172c-3.447,0-5.172,2.613-5.172,5.081
	C149.485,7.682,151.209,10.296,154.657,10.296 M96.762,12.425H96.59l-4.337,25.801h8.849L96.762,12.425z M161.374,15.996h6.595
	v1.575c0,2.229-1.16,2.587-3.298,2.587c-2.111,0-3.297-0.326-3.297-2.439V15.996z M149.665,20.63v3.21l9.656-3.267
	c1.07,1.931,2.849,2.616,5.29,2.616c4.101,0,6.21-1.755,6.21-5.353v-4.868h-21.156v3.027h9.031v1.815L149.665,20.63z"/>
</svg>
