<?xml version="1.0" encoding="utf-8"?>
<!-- Generator: Adobe Illustrator 16.1.0, SVG Export Plug-In . SVG Version: 6.00 Build 0)  -->
<!DOCTYPE svg PUBLIC "-//W3C//DTD SVG 1.1//EN" "http://www.w3.org/Graphics/SVG/1.1/DTD/svg11.dtd">
<svg version="1.1" id="Isolation_Mode" xmlns="http://www.w3.org/2000/svg" xmlns:xlink="http://www.w3.org/1999/xlink" x="0px"
	 y="0px" width="171px" height="61px" viewBox="0 0 171 61" enable-background="new 0 0 171 61" xml:space="preserve">
<path fill="black" d="M106.709,0.299l3.206,13.149h8.544v35.058l2.994,12.281h12.844V13.448h11.918V0h-39.506V0.299z
	 M102.977,50.146H90.379L88.76,60.788h15.836L102.977,50.146z M149.656,60.788h3.056v-3.056h-3.056V60.788z M160.775,53.953h7.193
	v1.574c0,2.377-1.637,2.377-3.625,2.377c-2.111,0-3.568-0.03-3.568-2.495V53.953z M149.665,53.953h8.259v1.545
	c0,2.23,0.833,3.566,2.2,4.398c1.157,0.709,2.407,0.86,4.249,0.86c2.525,0,3.861-0.327,4.962-1.366s1.485-2.26,1.485-3.922V50.92
	h-21.155V53.953z M165.829,32.572h-11.173c-1.453,0-2.141-0.951-2.141-2.048c0-1.104,0.688-2.052,2.141-2.052h11.173
	c1.455,0,2.14,0.948,2.14,2.052C167.969,31.621,167.284,32.572,165.829,32.572 M165.829,25.438h-11.173
	c-3.446,0-5.172,2.615-5.172,5.085c0,2.463,1.726,5.077,5.172,5.077h11.173c3.446,0,5.172-2.613,5.172-5.077
	C171,28.053,169.275,25.438,165.829,25.438 M65.05,22.307h-9.709V0H0v13.448h11.75v47.339h15.837V13.448h11.919v47.339h15.836
	V35.762h9.709v25.026h7.106l8.73-36.446V0H65.05V22.307z M149.484,43.176c0,2.703,2.17,4.9,4.935,4.9h16.401v-3.032h-16.106
	c-1.483,0-2.196-0.802-2.196-1.868c0-1.07,0.713-1.876,2.196-1.876h16.106v-3.028h-16.401
	C151.654,38.271,149.484,40.469,149.484,43.176 M154.656,10.296h6.656V4.861h-2.674v2.408h-3.981c-1.454,0-2.142-0.953-2.142-2.051
	c0-1.1,0.688-2.051,2.142-2.051h11.172c1.455,0,2.14,0.951,2.14,2.051c0,1.098-0.685,2.051-2.14,2.051h-1.07v3.028h1.07
	c3.446,0,5.172-2.614,5.172-5.079c0-2.468-1.726-5.081-5.172-5.081h-11.172c-3.447,0-5.173,2.613-5.173,5.081
	C149.484,7.682,151.209,10.296,154.656,10.296 M96.762,12.425H96.59l-4.337,25.802h8.849L96.762,12.425z M161.374,15.996h6.595
	v1.575c0,2.229-1.16,2.587-3.298,2.587c-2.11,0-3.297-0.326-3.297-2.439V15.996z M149.665,20.63v3.21l9.655-3.267
	c1.07,1.931,2.85,2.616,5.291,2.616c4.101,0,6.209-1.755,6.209-5.353v-4.868h-21.155v3.027h9.03v1.815L149.665,20.63z"/>
</svg>
